<?xml version="1.0" encoding="utf-8"?>
<svg xmlns="http://www.w3.org/2000/svg" xmlns:xlink="http://www.w3.org/1999/xlink" style="margin: auto; background: none; display: block; shape-rendering: auto;" width="200px" height="200px" viewBox="0 0 100 100" preserveAspectRatio="xMidYMid">
<g transform="rotate(0 50 50)">
  <rect x="47.5" y="24" rx="2.4" ry="2.4" width="5" height="12" fill="#50a3a2">
    <animate attributeName="opacity" values="1;0" keyTimes="0;1" dur="0.7042253521126761s" begin="-0.6628003314001657s" repeatCount="indefinite"></animate>
  </rect>
</g><g transform="rotate(21.176470588235293 50 50)">
  <rect x="47.5" y="24" rx="2.4" ry="2.4" width="5" height="12" fill="#50a3a2">
    <animate attributeName="opacity" values="1;0" keyTimes="0;1" dur="0.7042253521126761s" begin="-0.6213753106876553s" repeatCount="indefinite"></animate>
  </rect>
</g><g transform="rotate(42.35294117647059 50 50)">
  <rect x="47.5" y="24" rx="2.4" ry="2.4" width="5" height="12" fill="#50a3a2">
    <animate attributeName="opacity" values="1;0" keyTimes="0;1" dur="0.7042253521126761s" begin="-0.579950289975145s" repeatCount="indefinite"></animate>
  </rect>
</g><g transform="rotate(63.529411764705884 50 50)">
  <rect x="47.5" y="24" rx="2.4" ry="2.4" width="5" height="12" fill="#50a3a2">
    <animate attributeName="opacity" values="1;0" keyTimes="0;1" dur="0.7042253521126761s" begin="-0.5385252692626347s" repeatCount="indefinite"></animate>
  </rect>
</g><g transform="rotate(84.70588235294117 50 50)">
  <rect x="47.5" y="24" rx="2.4" ry="2.4" width="5" height="12" fill="#50a3a2">
    <animate attributeName="opacity" values="1;0" keyTimes="0;1" dur="0.7042253521126761s" begin="-0.49710024855012425s" repeatCount="indefinite"></animate>
  </rect>
</g><g transform="rotate(105.88235294117646 50 50)">
  <rect x="47.5" y="24" rx="2.4" ry="2.4" width="5" height="12" fill="#50a3a2">
    <animate attributeName="opacity" values="1;0" keyTimes="0;1" dur="0.7042253521126761s" begin="-0.4556752278376139s" repeatCount="indefinite"></animate>
  </rect>
</g><g transform="rotate(127.05882352941177 50 50)">
  <rect x="47.5" y="24" rx="2.4" ry="2.4" width="5" height="12" fill="#50a3a2">
    <animate attributeName="opacity" values="1;0" keyTimes="0;1" dur="0.7042253521126761s" begin="-0.4142502071251036s" repeatCount="indefinite"></animate>
  </rect>
</g><g transform="rotate(148.23529411764707 50 50)">
  <rect x="47.5" y="24" rx="2.4" ry="2.4" width="5" height="12" fill="#50a3a2">
    <animate attributeName="opacity" values="1;0" keyTimes="0;1" dur="0.7042253521126761s" begin="-0.3728251864125932s" repeatCount="indefinite"></animate>
  </rect>
</g><g transform="rotate(169.41176470588235 50 50)">
  <rect x="47.5" y="24" rx="2.4" ry="2.4" width="5" height="12" fill="#50a3a2">
    <animate attributeName="opacity" values="1;0" keyTimes="0;1" dur="0.7042253521126761s" begin="-0.33140016570008285s" repeatCount="indefinite"></animate>
  </rect>
</g><g transform="rotate(190.58823529411765 50 50)">
  <rect x="47.5" y="24" rx="2.4" ry="2.4" width="5" height="12" fill="#50a3a2">
    <animate attributeName="opacity" values="1;0" keyTimes="0;1" dur="0.7042253521126761s" begin="-0.2899751449875725s" repeatCount="indefinite"></animate>
  </rect>
</g><g transform="rotate(211.76470588235293 50 50)">
  <rect x="47.5" y="24" rx="2.4" ry="2.4" width="5" height="12" fill="#50a3a2">
    <animate attributeName="opacity" values="1;0" keyTimes="0;1" dur="0.7042253521126761s" begin="-0.24855012427506212s" repeatCount="indefinite"></animate>
  </rect>
</g><g transform="rotate(232.94117647058823 50 50)">
  <rect x="47.5" y="24" rx="2.4" ry="2.4" width="5" height="12" fill="#50a3a2">
    <animate attributeName="opacity" values="1;0" keyTimes="0;1" dur="0.7042253521126761s" begin="-0.2071251035625518s" repeatCount="indefinite"></animate>
  </rect>
</g><g transform="rotate(254.11764705882354 50 50)">
  <rect x="47.5" y="24" rx="2.4" ry="2.4" width="5" height="12" fill="#50a3a2">
    <animate attributeName="opacity" values="1;0" keyTimes="0;1" dur="0.7042253521126761s" begin="-0.16570008285004142s" repeatCount="indefinite"></animate>
  </rect>
</g><g transform="rotate(275.29411764705884 50 50)">
  <rect x="47.5" y="24" rx="2.4" ry="2.4" width="5" height="12" fill="#50a3a2">
    <animate attributeName="opacity" values="1;0" keyTimes="0;1" dur="0.7042253521126761s" begin="-0.12427506213753106s" repeatCount="indefinite"></animate>
  </rect>
</g><g transform="rotate(296.47058823529414 50 50)">
  <rect x="47.5" y="24" rx="2.4" ry="2.4" width="5" height="12" fill="#50a3a2">
    <animate attributeName="opacity" values="1;0" keyTimes="0;1" dur="0.7042253521126761s" begin="-0.08285004142502071s" repeatCount="indefinite"></animate>
  </rect>
</g><g transform="rotate(317.6470588235294 50 50)">
  <rect x="47.5" y="24" rx="2.4" ry="2.4" width="5" height="12" fill="#50a3a2">
    <animate attributeName="opacity" values="1;0" keyTimes="0;1" dur="0.7042253521126761s" begin="-0.041425020712510356s" repeatCount="indefinite"></animate>
  </rect>
</g><g transform="rotate(338.8235294117647 50 50)">
  <rect x="47.5" y="24" rx="2.4" ry="2.4" width="5" height="12" fill="#50a3a2">
    <animate attributeName="opacity" values="1;0" keyTimes="0;1" dur="0.7042253521126761s" begin="0s" repeatCount="indefinite"></animate>
  </rect>
</g>
</svg>